<svg width="28" height="28" viewBox="0 0 28 28" fill="none" xmlns="http://www.w3.org/2000/svg">
<path d="M7.58398 4.29163H14.584C16.453 4.29167 17.6483 4.64317 18.3984 5.32678C19.1415 6.00397 19.5521 7.10353 19.6143 8.86096L19.6465 9.78577L20.4023 9.25159L22.1143 8.0387L22.1152 8.03967C22.7299 7.60889 23.2316 7.47452 23.6055 7.45862C23.9816 7.44266 24.2636 7.54547 24.4385 7.63928L24.4473 7.64319C24.6243 7.73388 24.8718 7.90689 25.0762 8.22424C25.279 8.53932 25.459 9.02668 25.459 9.77698V18.2233C25.459 18.9736 25.279 19.4609 25.0762 19.776C24.8719 20.0932 24.6243 20.2664 24.4473 20.3571L24.4424 20.359C24.2722 20.4486 24.0139 20.5465 23.6836 20.5465C23.2975 20.5465 22.767 20.4229 22.1182 19.9625L22.1172 19.9615L20.4023 18.7487L19.6465 18.2135L19.6143 19.1393C19.5521 20.8965 19.1415 21.9963 18.3984 22.6735C17.6483 23.357 16.4529 23.7086 14.584 23.7086H7.58398C5.67042 23.7086 4.43369 23.0448 3.66602 22.1237C2.88548 21.187 2.54199 19.9261 2.54199 18.6666V9.33362L2.54688 8.9762C2.59165 7.23363 2.97096 6.11852 3.66992 5.41956C4.41551 4.67397 5.63488 4.29163 7.58398 4.29163ZM12.834 8.39026C11.3579 8.39026 10.1406 9.59241 10.1406 11.0836C10.1408 12.5747 11.358 13.777 12.834 13.777C14.3098 13.7768 15.5272 12.5746 15.5273 11.0836C15.5273 9.59252 14.3099 8.39044 12.834 8.39026Z" fill="#FCC434" stroke="#FCC434"/>
</svg>
